name rise35.5848peak51.9257fall54.8793.mot
datacolumns 19
datarows 14
range 11.90495300000000 11.92661200000000
endheader
time	ground_force1_vx	ground_force1_vy	ground_force1_vz	ground_force1_px	ground_force1_py	ground_force1_pz	ground_force2_vx	ground_force2_vy	ground_force2_vz	ground_force2_px	ground_force2_py	ground_force2_pz	ground_torque1_x	ground_torque1_y	ground_torque1_z	ground_torque2_x	ground_torque2_y	ground_torque2_z	
11.90495300000000	-8.11111800000000	41.96349100000000	-8.33940900000000	0.29943700000000	0.00000000000000	0.12235500000000	-49.43661500000000	780.51002600000004	-49.09259800000000	0.09730600000000	0.00000000000000	-0.05890900000000	0.00000000000000	-4.12686500000000	0.00000000000000	0.00000000000000	-14.30691000000000	0.00000000000000	
11.90661300000000	-8.96462400000000	49.04332700000000	-9.35898600000000	0.30376100000000	0.00000000000000	0.12300700000000	-50.01477600000000	777.63993400000004	-48.62488800000000	0.09671500000000	0.00000000000000	-0.05880500000000	0.00000000000000	-4.69306000000000	0.00000000000000	0.00000000000000	-14.24004100000000	0.00000000000000	
11.90828500000000	-9.68216900000000	56.17637400000000	-10.27807700000000	0.30764700000000	0.00000000000000	0.12361400000000	-50.60504500000000	774.66578900000002	-48.13616800000000	0.09612500000000	0.00000000000000	-0.05869700000000	0.00000000000000	-5.22075500000000	0.00000000000000	0.00000000000000	-14.17405600000000	0.00000000000000	
11.90994900000000	-10.24132300000000	63.26832000000000	-11.07430900000000	0.31116100000000	0.00000000000000	0.12418100000000	-51.20718600000000	771.58636000000001	-47.62665000000000	0.09553600000000	0.00000000000000	-0.05858500000000	0.00000000000000	-5.69775700000000	0.00000000000000	0.00000000000000	-14.10898500000000	0.00000000000000	
11.91161200000000	-10.62806100000000	70.24895600000001	-11.73286400000000	0.31435800000000	0.00000000000000	0.12471300000000	-51.82086800000000	768.40030400000001	-47.09656500000000	0.09494800000000	0.00000000000000	-0.05846900000000	0.00000000000000	-6.11555700000000	0.00000000000000	0.00000000000000	-14.04484700000000	0.00000000000000	
11.91328900000000	-10.83672100000000	77.07422400000000	-12.24656500000000	0.31728200000000	0.00000000000000	0.12521600000000	-52.44566600000000	765.10617100000002	-46.54617200000000	0.09436000000000	0.00000000000000	-0.05835000000000	0.00000000000000	-6.46946200000000	0.00000000000000	0.00000000000000	-13.98164300000000	0.00000000000000	
11.91494700000000	-10.86928200000000	83.72577500000000	-12.61532300000000	0.31996900000000	0.00000000000000	0.12569100000000	-53.08105400000000	761.70240000000001	-45.97575400000000	0.09377200000000	0.00000000000000	-0.05822600000000	0.00000000000000	-6.75840100000000	0.00000000000000	0.00000000000000	-13.91936200000000	0.00000000000000	
11.91661500000000	-10.73414900000000	90.20848300000000	-12.84510500000000	0.32245100000000	0.00000000000000	0.12614200000000	-53.72640400000000	758.18732699999998	-45.38561800000000	0.09318500000000	0.00000000000000	-0.05810000000000	0.00000000000000	-6.98445200000000	0.00000000000000	0.00000000000000	-13.85797900000000	0.00000000000000	
11.91828000000000	-10.44462000000000	96.54647600000000	-12.94657500000000	0.32475300000000	0.00000000000000	0.12657100000000	-54.38098700000000	754.55918999999994	-44.77609700000000	0.09259900000000	0.00000000000000	-0.05796900000000	0.00000000000000	-7.15220400000000	0.00000000000000	0.00000000000000	-13.79745300000000	0.00000000000000	
11.91995100000000	-10.01721600000000	102.77827700000000	-12.93359200000000	0.32689600000000	0.00000000000000	0.12698000000000	-55.04397100000000	750.81613200000004	-44.14755100000000	0.09201400000000	0.00000000000000	-0.05783500000000	0.00000000000000	-7.26801200000000	0.00000000000000	0.00000000000000	-13.73772900000000	0.00000000000000	
11.92162200000000	-9.47004800000000	108.95160300000001	-12.82171500000000	0.32889900000000	0.00000000000000	0.12737100000000	-55.71442100000000	746.95621000000006	-43.50036500000000	0.09142900000000	0.00000000000000	-0.05769700000000	0.00000000000000	-7.33923900000000	0.00000000000000	0.00000000000000	-13.67873600000000	0.00000000000000	
11.92328000000000	-8.82133300000000	115.11831400000000	-12.62681400000000	0.33077800000000	0.00000000000000	0.12774500000000	-56.39129800000000	742.97740099999999	-42.83495400000000	0.09084600000000	0.00000000000000	-0.05755600000000	0.00000000000000	-7.37355200000000	0.00000000000000	0.00000000000000	-13.62039300000000	0.00000000000000	
11.92494800000000	-8.08816300000000	121.32988300000000	-12.36391100000000	0.33254500000000	0.00000000000000	0.12810400000000	-57.07345900000000	738.87761100000000	-42.15175800000000	0.09026300000000	0.00000000000000	-0.05741100000000	0.00000000000000	-7.37830500000000	0.00000000000000	0.00000000000000	-13.56259900000000	0.00000000000000	
11.92661200000000	-7.28557200000000	127.63365500000000	-12.04628000000000	0.33421300000000	0.00000000000000	0.12844900000000	-57.75966100000000	734.65468699999997	-41.45124600000000	0.08968300000000	0.00000000000000	-0.05726300000000	0.00000000000000	-7.36006000000000	0.00000000000000	0.00000000000000	-13.50524200000000	0.00000000000000	
